<?xml version="1.0" standalone="no"?>
<!DOCTYPE svg PUBLIC "-//W3C//DTD SVG 20010904//EN"
 "http://www.w3.org/TR/2001/REC-SVG-20010904/DTD/svg10.dtd">
<svg version="1.0" xmlns="http://www.w3.org/2000/svg"
 width="128.000000pt" height="128.000000pt" viewBox="0 0 128.000000 128.000000"
 preserveAspectRatio="xMidYMid meet">

<g transform="translate(0.000000,128.000000) scale(0.100000,-0.100000)"
fill="#000000" stroke="none">
<path d="M62 1240 c-34 -21 -62 -71 -62 -111 0 -12 40 -124 90 -248 49 -125
90 -233 90 -241 0 -8 -40 -116 -90 -241 -49 -124 -90 -236 -90 -248 0 -40 28
-90 62 -111 67 -41 74 -38 628 230 283 137 529 261 547 277 33 30 50 84 39
128 -14 54 -70 86 -586 336 -554 267 -561 270 -628 229z m580 -307 c269 -130
491 -240 494 -245 3 -4 -192 -7 -433 -6 l-438 3 -87 215 c-48 118 -87 222 -88
231 0 21 20 39 44 39 10 0 239 -107 508 -237z m494 -341 c-11 -18 -987 -483
-1007 -480 -49 7 -47 28 26 210 37 95 78 197 91 226 l23 52 436 0 c240 0 434
-4 431 -8z"/>
</g>
</svg>
